<svg width="20" height="20" viewBox="0 0 20 20" fill="none" xmlns="http://www.w3.org/2000/svg">
<g clip-path="url(#clip0_160_1563)">
<path fill-rule="evenodd" clip-rule="evenodd" d="M10.0002 0.416748C7.62627 0.41798 5.33013 1.2588 3.52241 2.78885C1.71469 4.3189 0.513273 6.43842 0.132974 8.76841C-0.247325 11.0984 0.218293 13.4869 1.44658 15.5069C2.67487 17.5269 4.58572 19.0466 6.83746 19.7942C7.33423 19.8864 7.52135 19.5785 7.52135 19.3167C7.52135 19.055 7.51141 18.2959 7.5081 17.4661C4.72618 18.0671 4.13834 16.2922 4.13834 16.2922C3.68462 15.1396 3.02888 14.8367 3.02888 14.8367C2.12145 14.2209 3.09678 14.2324 3.09678 14.2324C4.10192 14.3032 4.63015 15.2582 4.63015 15.2582C5.52103 16.7779 6.96993 16.3383 7.53956 16.0814C7.62898 15.4376 7.88896 14.9997 8.17543 14.751C5.95321 14.5008 3.61839 13.6479 3.61839 9.83793C3.60461 8.84984 3.97337 7.89429 4.64836 7.16898C4.5457 6.91872 4.20292 5.90778 4.74606 4.53461C4.74606 4.53461 5.58561 4.26788 7.49652 5.55378C9.13558 5.1081 10.8649 5.1081 12.504 5.55378C14.4132 4.26788 15.2511 4.53461 15.2511 4.53461C15.7959 5.90448 15.4531 6.91542 15.3505 7.16898C16.0276 7.89441 16.3971 8.85162 16.3821 9.84123C16.3821 13.6594 14.0423 14.5008 11.8168 14.7461C12.1744 15.0556 12.494 15.6599 12.494 16.5885C12.494 17.9189 12.4824 18.9891 12.4824 19.3167C12.4824 19.5818 12.6629 19.8914 13.1696 19.7942C15.4216 19.0465 17.3327 17.5265 18.561 15.5062C19.7892 13.4859 20.2546 11.097 19.8739 8.76679C19.4931 6.43658 18.2911 4.31704 16.4828 2.78725C14.6745 1.25746 12.3778 0.417199 10.0035 0.416748H10.0002Z" fill="#191717"/>
<path d="M6.68986 16.6461C6.68986 16.7268 6.59713 16.796 6.47791 16.7976C6.35868 16.7993 6.26099 16.7334 6.26099 16.6527C6.26099 16.5721 6.35371 16.5029 6.47294 16.5013C6.59216 16.4996 6.68986 16.5638 6.68986 16.6461Z" fill="#191717"/>
<path d="M7.45154 16.5192C7.46644 16.5999 7.38365 16.6838 7.26442 16.7036C7.1452 16.7233 7.04087 16.6756 7.02597 16.5966C7.01107 16.5175 7.09718 16.4319 7.21309 16.4105C7.329 16.3891 7.43664 16.4385 7.45154 16.5192Z" fill="#191717"/>
<path d="M5.87185 16.5901C5.84701 16.6675 5.73441 16.702 5.62181 16.6691C5.50921 16.6362 5.43469 16.544 5.45622 16.4649C5.47775 16.3859 5.592 16.3497 5.70626 16.3859C5.82052 16.4221 5.89338 16.5094 5.87185 16.5901Z" fill="#191717"/>
<path d="M5.12168 16.2674C5.06704 16.3283 4.95609 16.3118 4.86502 16.2295C4.77394 16.1472 4.75241 16.0352 4.80706 15.9759C4.8617 15.9167 4.97265 15.9331 5.06703 16.0138C5.16142 16.0945 5.17964 16.2081 5.12168 16.2674V16.2674Z" fill="#191717"/>
<path d="M4.58685 15.7141C4.52558 15.7569 4.42125 15.7141 4.3633 15.6285C4.34727 15.6131 4.33453 15.5947 4.32582 15.5743C4.31711 15.5539 4.31262 15.532 4.31262 15.5099C4.31262 15.4878 4.31711 15.4659 4.32582 15.4455C4.33453 15.4251 4.34727 15.4067 4.3633 15.3914C4.42457 15.3502 4.52889 15.3914 4.58685 15.4753C4.64481 15.5593 4.64646 15.6713 4.58685 15.7141V15.7141Z" fill="#191717"/>
<path d="M4.19273 15.1428C4.15844 15.16 4.11921 15.1648 4.08175 15.1563C4.04429 15.1479 4.01094 15.1268 3.9874 15.0967C3.92282 15.0275 3.90957 14.932 3.95924 14.8892C4.00892 14.8464 4.09835 14.8662 4.16293 14.9353C4.22751 15.0045 4.24241 15.1 4.19273 15.1428Z" fill="#191717"/>
<path d="M3.78705 14.6933C3.76552 14.7427 3.68604 14.7575 3.62146 14.7229C3.55688 14.6883 3.50886 14.6241 3.53205 14.5731C3.55523 14.522 3.63306 14.5089 3.69764 14.5434C3.76222 14.578 3.81189 14.6439 3.78705 14.6933Z" fill="#191717"/>
</g>
<defs>
<clipPath id="clip0_160_1563">
<rect width="20" height="20" fill="white"/>
</clipPath>
</defs>
</svg>
